<?xml version="1.0" encoding="UTF-8" standalone="no"?>
<!-- Created with Inkscape (http://www.inkscape.org/) -->
<svg id="svg3359" xmlns:rdf="http://www.w3.org/1999/02/22-rdf-syntax-ns#" xmlns="http://www.w3.org/2000/svg" height="101" viewBox="0 0 100 101" width="100" version="1.1" xmlns:cc="http://creativecommons.org/ns#" xmlns:dc="http://purl.org/dc/elements/1.1/">
 <metadata id="metadata3365">
  <rdf:RDF>
   <cc:Work rdf:about="">
    <dc:format>image/svg+xml</dc:format>
    <dc:type rdf:resource="http://purl.org/dc/dcmitype/StillImage"/>
    <dc:title/>
   </cc:Work>
  </rdf:RDF>
 </metadata>
 <path id="path3369" fill="#fff" d="m38.5 91.512c-22.46-6.093-35.863-29.34-29.968-51.974 6.014-19.719 23.237-31.013 41.516-31.037 11.316-0.001 12.982 1.0993 19.091 3.725 26.664 11.46 31.991 47.355 11.817 68.3-4.18 4.34-12.91 9.377-19.114 11.028-6.631 1.765-16.748 1.747-23.342-0.042zm6.219-25.728 5.281-5.216 5.281 5.216c2.905 2.869 6.146 5.216 7.203 5.216 2.309 0 8.516-5.77 8.516-7.917 0-0.83866-2.4762-4.0271-5.5026-7.0854l-5.5026-5.5606 5.5026-5.4342c3.373-3.331 5.503-6.291 5.503-7.646 0-2.062-6.254-8.357-8.302-8.357-0.46552 0-3.5284 2.5582-6.8064 5.6848l-5.96 5.6848-5.7448-5.6848c-3.16-3.127-6.163-5.685-6.674-5.685-1.55 0-8.513 7.299-8.513 8.924 0 0.83493 2.4762 4.0203 5.5026 7.0787l5.5026 5.5606-5.5026 5.4342c-3.027 2.988-5.503 6.103-5.503 6.92 0 2.226 6.097 8.082 8.415 8.082 1.1123 0 4.399-2.3471 7.3038-5.2158z"/>
</svg>
